<svg xmlns="http://www.w3.org/2000/svg" viewBox="0 0 1024 1024" role="img" aria-label="Orchard">
  <rect width="1024" height="1024" rx="224" fill="#0b0b0a"/>
  <path fill="#f2efe8" d="M511 344c-71-76-190-67-249 25-81 127-28 344 84 456 48 48 104 22 165 22s117 26 165-22c112-112 165-329 84-456-59-92-178-101-249-25Z"/>
  <path fill="#e45347" d="M522 300c20-89 86-144 176-139-7 92-72 150-176 139Z"/>
  <path fill="#0b0b0a" d="M512 347c-42-46-88-70-143-74 44-39 94-57 143-57s99 18 143 57c-55 4-101 28-143 74Z" opacity=".18"/>
</svg>
